<?xml version="1.0" encoding="UTF-8" standalone="no"?>
<!-- Created with Inkscape (http://www.inkscape.org/) -->

<svg
   width="1000"
   height="1000"
   viewBox="0 0 264.58332 264.58334"
   version="1.1"
   id="svg5"
   xmlns="http://www.w3.org/2000/svg"
   xmlns:svg="http://www.w3.org/2000/svg"
   xmlns:rdf="http://www.w3.org/1999/02/22-rdf-syntax-ns#"
   xmlns:cc="http://creativecommons.org/ns#"
   xmlns:dc="http://purl.org/dc/elements/1.1/">
  <defs
     id="defs2" />
  <metadata
     id="metadata856">
    <rdf:RDF>
      <cc:Work
         rdf:about="">
        <dc:creator>
          <cc:Agent>
            <dc:title>Inspire Studio</dc:title>
          </cc:Agent>
        </dc:creator>
        <cc:license
           rdf:resource="http://creativecommons.org/publicdomain/zero/1.0/" />
        <dc:description>Thank you for using this artwork. Feel free to visit our page https://www.pinterest.com.au/inspirestudiobox for more designs. We wish you have a wonderful day, everyday. Amitabha</dc:description>
      </cc:Work>
      <cc:License
         rdf:about="http://creativecommons.org/publicdomain/zero/1.0/">
        <cc:permits
           rdf:resource="http://creativecommons.org/ns#Reproduction" />
        <cc:permits
           rdf:resource="http://creativecommons.org/ns#Distribution" />
        <cc:permits
           rdf:resource="http://creativecommons.org/ns#DerivativeWorks" />
      </cc:License>
    </rdf:RDF>
  </metadata>
  <text
     xml:space="preserve"
     style="font-style:normal;font-weight:normal;font-size:10.5833px;line-height:1.25;font-family:sans-serif;letter-spacing:0px;word-spacing:0px;fill:#000000;fill-opacity:1;stroke:none;stroke-width:0.264583"
     x="56.362625"
     y="182.01463"
     id="text29100"><tspan
       id="tspan29098"
       style="stroke-width:0.264583" /></text>
  <g
     aria-label="A"
     id="text57984"
     style="font-size:100.331px;line-height:1.25;font-family:FreeSans;-inkscape-font-specification:'FreeSans, Normal';letter-spacing:0px;word-spacing:0px;stroke-width:0.264583" />
  <g
     aria-label="文"
     id="g60081"
     style="font-size:103.432px;line-height:1.25;font-family:'DejaVu Sans Mono';-inkscape-font-specification:'DejaVu Sans Mono, Normal';letter-spacing:0px;word-spacing:0px;stroke-width:0.264583"
     transform="translate(15.091994,76.54148)" />
  <rect
     style="fill:#f7f7f7;fill-opacity:1;stroke:none;stroke-width:10.5833;stroke-linecap:square;stroke-miterlimit:4;stroke-dasharray:none;stroke-opacity:1;paint-order:stroke markers fill"
     id="rect76619"
     width="264.58334"
     height="264.58334"
     x="-1.5413209e-05"
     y="1.7011718e-05" />
  <g
     id="g76617"
     transform="translate(31.845061,-188.89366)">
    <path
       d="m 130.53516,309.80721 -14.36708,38.95746 h 28.7866 z m -5.97753,-10.43411 h 12.00751 l 29.8353,78.28197 h -11.01127 l -7.13111,-20.0817 h -35.28848 l -7.13111,20.0817 H 94.6699 Z"
       id="path73483"
       style="font-size:103.432px;line-height:1.25;letter-spacing:0px;word-spacing:0px;fill:#4d4d4d;fill-opacity:1;stroke:#4d4d4d;stroke-width:0.264582;stroke-opacity:1" />
    <path
       id="path73485"
       style="font-size:103.432px;line-height:1.25;font-family:'DejaVu Sans Mono';-inkscape-font-specification:'DejaVu Sans Mono, Normal';letter-spacing:0px;word-spacing:0px;fill:#0573e1;fill-opacity:1;stroke:#0573e1;stroke-width:0.264583;stroke-opacity:1"
       d="m 56.162488,292.37954 c 5.53667,12.26588 12.475847,22.96647 21.015211,32.00292 -11.490309,9.44962 -25.55788,16.32209 -42.63227,21.26165 1.71818,1.82549 4.295441,5.69127 5.047152,7.62413 17.28915,-5.58385 31.786279,-12.99321 43.598739,-23.08715 5.67785,5.1099 12.000789,9.5499 19.02842,13.29624 l 3.24284,-8.49392 c -5.751161,-3.14155 -11.024719,-6.76164 -15.8281,-10.81571 11.16815,-11.27512 19.65165,-25.44956 25.98743,-43.06023 h 16.53746 v 0 -7.83889 H 87.594148 v -8.55284 l -8.053948,-10e-5 v 0 8.55284 H 35.834061 v 7.83889 0 h 37.832799 32.71986 v 0 c -5.4767,15.14088 -12.99373,27.48981 -22.87324,37.47635 -7.44618,-7.60265 -13.519314,-16.40668 -18.30293,-26.20328 z" />
  </g>
</svg>
